<svg xmlns="http://www.w3.org/2000/svg" viewBox="70.743 32.152 487.308 804.982" fill="none">
	<path d="M 352.846 34.764 C 349.629 36.885, 339.345 45.851, 328.488 56 C 324.075 60.125, 309 73.850, 294.987 86.500 C 217.121 156.794, 155.399 225.320, 115.294 286 C 94.237 317.861, 79.941 350.089, 75.148 376.500 C 71.510 396.550, 70.743 431.558, 73.463 453.500 C 77.252 484.077, 85.687 514.830, 95.953 535.500 C 110.242 564.269, 135.407 597.622, 157.093 616.534 C 187.884 643.386, 224.006 662.128, 262 670.965 C 267.225 672.180, 272.040 673.622, 272.701 674.169 C 273.362 674.716, 274.213 677.235, 274.592 679.767 C 276.120 689.957, 285.502 717.100, 291.881 729.788 C 305.495 756.862, 314.129 795.030, 312.516 821.005 C 312.103 827.650, 312.256 832.543, 312.932 834.322 L 314.001 837.134 343.849 836.817 C 367.315 836.568, 374.049 836.207, 375.348 835.128 C 377.687 833.184, 377.477 826.718, 374.436 807.069 C 370.603 782.305, 365.402 762.923, 357.244 743 C 352.750 732.027, 350.487 727.571, 340.486 710 C 328.045 688.142, 323.339 678.261, 324.715 676.885 C 325.345 676.255, 329.830 675.361, 334.680 674.898 C 382.736 670.313, 433.466 646.906, 474.467 610.402 C 489.267 597.224, 509.320 572.558, 520.589 553.668 C 543.132 515.879, 557.917 466.518, 557.979 428.842 C 558.051 385.350, 542.514 334.319, 508.188 265.301 C 479.328 207.273, 451.329 160.435, 397.812 80.656 C 390.490 69.741, 384.042 60.291, 383.481 59.656 C 382.921 59.020, 379.439 53.932, 375.743 48.349 C 372.047 42.765, 367.633 37.028, 365.935 35.599 C 362.252 32.499, 356.806 32.152, 352.846 34.764 M 320.952 66.305 C 319.603 67.534, 314.450 72.112, 309.500 76.479 C 270.117 111.220, 212.976 167.693, 188.393 196.168 C 185.702 199.286, 182.938 201.873, 182.250 201.918 C 181.563 201.963, 181 202.642, 181 203.427 C 181 204.213, 179.875 205.740, 178.500 206.821 C 177.125 207.903, 176 209.272, 176 209.864 C 176 210.456, 174.650 211.938, 173 213.158 C 171.350 214.378, 170 215.802, 170 216.323 C 170 216.844, 168.875 218.313, 167.500 219.588 C 166.125 220.862, 165 222.116, 165 222.375 C 165 222.634, 163.762 224.161, 162.250 225.768 C 157.800 230.497, 151.532 238.144, 151.103 239.367 C 150.885 239.990, 150.098 240.860, 149.353 241.300 C 148.609 241.740, 148 242.502, 148 242.994 C 148 243.486, 146.424 245.601, 144.498 247.694 C 142.571 249.787, 140.741 252.287, 140.430 253.250 C 140.119 254.212, 139.446 255, 138.933 255 C 138.420 255, 138 255.689, 138 256.531 C 138 257.374, 137.325 258.322, 136.500 258.638 C 135.675 258.955, 135 259.841, 135 260.607 C 135 261.373, 134.571 262, 134.047 262 C 133.523 262, 132.356 263.554, 131.455 265.454 C 130.553 267.354, 129.182 269.434, 128.408 270.076 C 127.634 270.719, 127 271.659, 127 272.165 C 127 272.671, 125.282 275.429, 123.182 278.293 C 112.175 293.305, 95.750 322.723, 89.009 339.500 C 87.240 343.900, 85.165 348.918, 84.397 350.651 C 83.629 352.384, 83 354.720, 83 355.842 C 83 356.964, 82.550 358.160, 82 358.500 C 81.450 358.840, 81 360.207, 81 361.539 C 81 362.870, 80.374 365.656, 79.609 367.730 C 73.896 383.220, 72.468 436.664, 77.020 464.605 C 80.364 485.126, 87.116 507.906, 95.960 528.500 C 100.558 539.206, 109.782 556.533, 113.625 561.683 C 114.931 563.434, 116 565.157, 116 565.511 C 116 567.222, 133.776 589.707, 142.574 599.126 C 158.632 616.317, 178.820 632.904, 193.500 640.969 C 196.800 642.782, 199.950 644.602, 200.500 645.014 C 202.923 646.830, 213.412 652, 214.672 652 C 215.437 652, 216.321 652.672, 216.636 653.494 C 216.952 654.316, 217.583 654.758, 218.039 654.476 C 218.935 653.922, 227.107 657.821, 228.112 659.281 C 228.448 659.771, 229.011 660.132, 229.362 660.085 C 231.669 659.777, 243 663.164, 243 664.162 C 243 664.883, 249.276 666.415, 250.618 666.022 C 250.980 665.916, 251.587 666.332, 251.967 666.947 C 252.347 667.562, 254.198 668.222, 256.079 668.414 C 257.961 668.606, 260.658 669.225, 262.074 669.790 C 263.489 670.354, 266.414 670.940, 268.574 671.092 C 273.546 671.441, 276 673.491, 276 677.294 C 276 679.922, 279.539 692.727, 283.518 704.500 C 285.691 710.927, 289.826 720.927, 293.651 729 C 295.605 733.125, 298.755 740.325, 300.651 745 C 302.548 749.675, 304.493 754.400, 304.974 755.500 C 305.456 756.600, 306.084 758.625, 306.370 760 C 306.657 761.375, 307.602 764.975, 308.470 768 C 312.807 783.110, 316.311 810.041, 315.911 825.188 L 315.691 833.500 344.595 833.500 L 373.500 833.500 373.189 823.500 C 372.718 808.360, 368.687 785.505, 363.927 771 C 363.296 769.075, 362.414 765.925, 361.968 764 C 361.192 760.652, 357.154 749.272, 354.872 744 C 354.276 742.625, 353.218 740.150, 352.520 738.500 C 349.786 732.037, 341.142 715.413, 339 712.500 C 337.662 710.680, 332.284 700.627, 328.035 692 C 325.731 687.325, 323.136 682.096, 322.266 680.381 C 319.876 675.662, 321.046 674.031, 326.969 673.825 C 335.775 673.519, 337.485 673.324, 341.030 672.222 C 342.939 671.629, 346.684 671.127, 349.354 671.106 C 354.527 671.066, 358.168 670.243, 359.026 668.919 C 359.315 668.473, 361.452 667.995, 363.776 667.858 C 366.099 667.721, 368 667.199, 368 666.698 C 368 666.196, 368.661 666.040, 369.468 666.349 C 370.275 666.659, 371.184 666.511, 371.488 666.020 C 371.791 665.529, 372.818 665.147, 373.770 665.170 C 375.525 665.214, 379.830 663.852, 385.784 661.369 C 387.590 660.616, 389.953 660, 391.034 660 C 392.115 660, 393 659.586, 393 659.079 C 393 658.197, 398.694 656.414, 400.250 656.810 C 400.663 656.914, 401 656.550, 401 656 C 401 655.450, 402.125 655, 403.500 655 C 404.875 655, 406 654.559, 406 654.019 C 406 653.480, 407.233 652.729, 408.740 652.350 C 410.247 651.972, 412.079 651.064, 412.812 650.331 C 413.544 649.599, 415.011 649, 416.071 649 C 417.132 649, 418 648.637, 418 648.192 C 418 647.748, 419.913 646.552, 422.250 645.535 C 424.587 644.517, 426.860 643.080, 427.300 642.342 C 427.740 641.604, 428.977 641, 430.050 641 C 431.122 641, 432 640.652, 432 640.227 C 432 639.802, 433.688 638.565, 435.750 637.477 C 443.849 633.207, 467.402 614.452, 478.703 603.275 C 492.997 589.137, 503.595 575.974, 514.751 558.500 C 523.642 544.574, 534.023 524.193, 538.435 512 C 539.928 507.875, 541.741 502.925, 542.465 501 C 543.189 499.075, 544.569 494.800, 545.531 491.500 C 546.494 488.200, 547.632 484.375, 548.061 483 C 549.145 479.520, 551.505 468.342, 553.656 456.500 C 557.169 437.158, 555.788 405.715, 550.428 383 C 546.967 368.329, 539.664 343.442, 537.078 337.500 C 536.599 336.400, 534.542 331, 532.505 325.500 C 530.469 320, 527.947 313.728, 526.901 311.562 C 525.856 309.396, 525 307.290, 525 306.882 C 525 304.659, 503.804 260.564, 494.052 242.500 C 484.404 224.627, 478.117 213.232, 475.844 209.500 C 474.839 207.850, 473.707 205.825, 473.328 205 C 472.949 204.175, 469.795 198.836, 466.319 193.135 C 462.844 187.435, 460 182.620, 460 182.435 C 460 182.251, 458.650 180.100, 457 177.655 C 455.350 175.210, 454 172.899, 454 172.518 C 454 172.138, 452.690 169.953, 451.089 167.663 C 449.488 165.374, 444.825 158.100, 440.727 151.500 C 436.629 144.900, 429.554 133.875, 425.004 127 C 420.455 120.125, 414.217 110.675, 411.143 106 C 406.136 98.386, 398.335 87.161, 396.201 84.500 C 395.760 83.950, 395.098 82.713, 394.731 81.750 C 394.363 80.787, 393.599 80, 393.031 80 C 392.464 80, 392 79.325, 392 78.500 C 392 77.675, 391.550 77, 391 77 C 389.292 77, 388.833 76.165, 402 97.001 C 408.766 107.708, 421.620 128.875, 422.646 131 C 423.044 131.825, 425.087 135.320, 427.185 138.768 C 429.283 142.215, 431 145.244, 431 145.500 C 431 145.756, 432.800 148.906, 435 152.500 C 437.200 156.094, 439 159.261, 439 159.537 C 439 159.814, 440.134 161.836, 441.520 164.031 C 442.905 166.226, 446.135 171.955, 448.696 176.761 C 451.258 181.567, 454.331 187.075, 455.525 189 C 458.750 194.198, 493 263.836, 493 265.195 C 493 265.561, 494.386 268.929, 496.081 272.680 C 500.393 282.225, 502.199 286.498, 505.516 295 C 507.326 299.640, 509.498 305.001, 510.985 308.500 C 511.453 309.600, 513.259 314.775, 515 320 C 516.741 325.225, 518.543 330.400, 519.006 331.500 C 519.469 332.600, 520.597 336.200, 521.514 339.500 C 522.431 342.800, 523.575 346.500, 524.057 347.722 C 524.538 348.944, 525.850 353.894, 526.973 358.722 C 528.096 363.550, 529.442 369.075, 529.964 371 C 530.487 372.925, 531.593 378.550, 532.422 383.500 C 533.252 388.450, 534.434 395.484, 535.050 399.130 C 536.514 407.799, 536.645 434.120, 535.257 440.500 C 534.658 443.250, 533.436 449.100, 532.541 453.500 C 529.436 468.760, 523.730 486.687, 517.622 500.374 C 516.180 503.605, 515 506.707, 515 507.266 C 515 507.826, 513.200 511.134, 511 514.617 C 508.800 518.101, 507 521.238, 507 521.589 C 507 523.605, 489.137 549.984, 482.009 558.496 C 475.734 565.988, 456.705 584.474, 449 590.562 C 439.165 598.333, 427.999 605.883, 420.058 610.131 C 417.001 611.766, 413.825 613.529, 413 614.048 C 412.175 614.567, 408.350 616.380, 404.500 618.077 C 400.650 619.774, 396.054 621.814, 394.286 622.611 C 388.672 625.142, 370.791 630.628, 362.500 632.363 C 358.100 633.284, 352.475 634.515, 350 635.098 C 347.525 635.681, 337.763 636.415, 328.307 636.728 L 311.113 637.299 310.617 634.899 C 309.373 628.878, 308.941 625.523, 307.547 611.066 C 306.570 600.926, 306.396 595.228, 307.040 594.452 C 307.604 593.773, 312.577 592.968, 318.760 592.557 C 339.495 591.177, 358.825 585.782, 379.870 575.503 C 390.609 570.257, 409.810 557.194, 416.892 550.316 C 420.836 546.486, 420.114 545.932, 415.594 549.320 C 406.835 555.887, 382.933 569, 379.721 569 C 378.994 569, 377.972 569.389, 377.450 569.864 C 375.048 572.047, 359.653 576.303, 344.500 578.973 C 336.080 580.457, 308.684 580.221, 306.531 578.646 C 304.830 577.402, 304.735 576.250, 305.367 564.437 C 306.760 538.369, 307.790 532.418, 312.621 522.500 C 317.778 511.914, 321.206 505.662, 323.117 503.360 C 324.454 501.748, 343.291 489, 344.335 489 C 344.620 489, 348.374 487.368, 352.677 485.373 C 374.225 475.384, 406.516 465.602, 422.500 464.222 C 429.687 463.601, 430.044 463.479, 426.009 463.016 C 422.782 462.645, 421.424 462.008, 421.186 460.750 C 420.972 459.627, 421.476 459, 422.593 459 C 423.550 459, 424.033 458.699, 423.665 458.332 C 423.298 457.964, 421.760 458.250, 420.248 458.966 C 414.241 461.812, 411.693 462.513, 390.500 467.155 C 387.750 467.758, 383.507 468.869, 381.072 469.625 C 378.636 470.381, 375.936 471.003, 375.072 471.006 C 373.169 471.013, 355.695 476.503, 351.500 478.412 C 346.237 480.807, 344 481.240, 344 479.864 C 344 478.278, 358.154 464.378, 367.500 456.785 C 371.350 453.657, 376.300 449.207, 378.500 446.895 C 386.671 438.309, 428.031 409.820, 445 401.089 C 445.825 400.665, 448.975 398.950, 452 397.280 C 455.025 395.609, 462.675 391.643, 469 388.466 C 475.325 385.289, 481.932 381.635, 483.683 380.345 C 485.434 379.055, 487.098 378, 487.382 378 C 487.665 378, 489.111 376.875, 490.595 375.500 C 494.317 372.050, 493.101 372.364, 485.751 376.750 C 479.386 380.548, 476.128 382.207, 468 385.792 C 442.402 397.081, 420.766 408.316, 402.657 419.722 C 397.274 423.113, 395.447 422.234, 397.566 417.273 C 402.328 406.123, 405.390 387.956, 403.507 382.024 C 402.288 378.180, 401.032 381.754, 401.015 389.120 C 400.993 398.716, 397.687 408.470, 390.550 420 C 384.485 429.797, 382.010 432.510, 372.500 439.790 C 369.200 442.316, 363.350 447.028, 359.500 450.260 C 355.650 453.493, 349.131 458.919, 345.014 462.319 C 340.897 465.718, 332.852 473.139, 327.137 478.808 C 316.417 489.441, 313.435 490.915, 314.997 484.810 C 315.825 481.573, 317.998 470.992, 320.093 460 C 320.669 456.975, 321.755 451.800, 322.504 448.500 C 323.254 445.200, 324.123 440.925, 324.436 439 C 324.749 437.075, 325.683 432.350, 326.511 428.500 C 328.087 421.170, 330.615 408.617, 331.545 403.500 C 334.517 387.145, 337.182 371.586, 338.995 360 C 339.640 355.875, 340.805 349.080, 341.584 344.900 C 342.363 340.720, 343 335.453, 343 333.195 C 343 329.234, 343.284 328.874, 351.092 322.930 C 360.130 316.050, 368.761 307.768, 373.949 301 C 378.913 294.523, 388.256 285.600, 392.152 283.616 C 393.993 282.678, 396.850 281.036, 398.500 279.967 C 400.150 278.898, 402.400 277.597, 403.500 277.075 C 405.422 276.164, 405.413 276.124, 403.250 276.063 C 402.012 276.029, 401 276.450, 401 277 C 401 277.550, 400.242 278, 399.316 278 C 398.389 278, 395.666 278.952, 393.264 280.114 C 390.861 281.277, 388.639 281.972, 388.324 281.658 C 388.010 281.343, 388.770 279.154, 390.012 276.793 C 398.339 260.969, 400.016 257.368, 399.683 256.018 C 399.394 254.843, 399.122 254.952, 398.478 256.500 C 398.020 257.600, 397.350 258.725, 396.987 259 C 396.625 259.275, 394.499 262.653, 392.262 266.508 C 386.353 276.689, 379.964 285.041, 370.685 294.717 C 361.264 304.540, 348.603 314.490, 346.879 313.425 C 346.026 312.898, 345.943 310.013, 346.570 302.603 C 347.701 289.222, 347.717 260.085, 346.603 241.711 C 345.626 225.589, 346.528 219.997, 351.700 210.101 C 352.965 207.682, 354 205.287, 354 204.780 C 354 204.272, 354.675 203.182, 355.500 202.357 C 357.166 200.692, 357.476 199, 356.117 199 C 355.631 199, 354.961 199.787, 354.628 200.750 C 354.296 201.713, 353.123 203.850, 352.023 205.500 C 350.922 207.150, 349.744 209.175, 349.404 210 C 349.064 210.825, 348.159 212.918, 347.393 214.651 C 346.627 216.384, 346 218.297, 346 218.901 C 346 219.506, 345.325 220, 344.500 220 C 343.675 220, 343 219.352, 343 218.559 C 343 217.766, 342.663 216.909, 342.250 216.654 C 341.837 216.399, 341.500 229.760, 341.500 246.345 C 341.500 266.325, 341.061 279.199, 340.200 284.500 C 339.484 288.900, 338.218 296.775, 337.385 302 C 336.552 307.225, 335.258 313.975, 334.509 317 C 333.760 320.025, 331.262 330.600, 328.957 340.500 C 326.652 350.400, 324.190 360.525, 323.486 363 C 322.782 365.475, 321.681 369.750, 321.039 372.500 C 320.398 375.250, 319.236 379.750, 318.457 382.500 C 317.679 385.250, 316.407 389.750, 315.631 392.500 C 312.943 402.023, 310.751 409.534, 308.484 417 C 307.231 421.125, 304.769 429.225, 303.014 435 C 298.622 449.449, 298.149 451.106, 297.516 454.250 C 297.108 456.274, 296.373 456.994, 294.731 456.975 C 290.858 456.933, 280.955 438.192, 276.514 422.500 C 275.580 419.200, 274.332 414.925, 273.740 413 C 270.105 401.177, 265.334 371.036, 264.518 354.744 L 263.954 343.500 274.727 333.937 C 285.182 324.657, 301.939 304.450, 301.982 301.071 C 301.992 300.285, 299.014 302.885, 295.365 306.849 C 288.901 313.869, 275.197 325.605, 272.062 326.805 C 271.203 327.134, 268.984 328.431, 267.131 329.687 C 265.279 330.944, 263.366 331.726, 262.881 331.427 C 261.698 330.695, 261.762 287.021, 262.958 279.724 C 263.478 276.547, 264.195 270.922, 264.552 267.224 C 264.909 263.526, 265.605 259.742, 266.100 258.816 C 266.595 257.889, 267.016 255.864, 267.035 254.316 C 267.055 252.767, 267.714 250.375, 268.500 249 C 269.934 246.491, 270.599 241.068, 269.315 242.352 C 268.578 243.089, 267.539 245.804, 264.091 256 C 262.882 259.575, 261.497 263.234, 261.012 264.132 C 260.527 265.029, 259.624 268.560, 259.004 271.978 C 257.711 279.106, 256.391 283.004, 255.275 282.990 C 254.849 282.984, 253.732 281.297, 252.793 279.240 C 251.854 277.183, 249.477 272.800, 247.511 269.500 C 245.545 266.200, 243.482 262.600, 242.925 261.500 C 239.755 255.231, 233.726 246, 232.801 246 C 231.579 246, 231.846 247.701, 233.300 249.179 C 235.027 250.933, 246.429 274.416, 248.023 279.500 C 248.713 281.700, 249.627 284.400, 250.054 285.500 C 250.481 286.600, 251.574 290.639, 252.483 294.476 C 253.935 300.606, 254.049 305.734, 253.419 336.726 C 252.880 363.206, 252.400 372, 251.494 372 C 248.234 372, 231.520 357.094, 225.197 348.548 C 214.817 334.519, 200.199 300.949, 196.436 282.500 L 195.620 278.500 195.028 282.500 C 194.441 286.464, 195.194 290.502, 199.225 305 C 203.648 320.911, 205.721 326.772, 211.161 338.753 C 212.722 342.192, 214 345.291, 214 345.641 C 214 345.991, 216.500 350.034, 219.555 354.626 C 226.084 364.439, 238.073 376.861, 246.455 382.500 C 249.726 384.700, 252.803 386.778, 253.294 387.117 C 253.785 387.456, 254.569 390.381, 255.036 393.617 C 255.783 398.794, 256.957 405.558, 259.963 422 C 261.045 427.920, 263.610 438.978, 264.486 441.500 C 266.503 447.305, 271.684 458.965, 273.699 462.230 C 274.964 464.282, 276 466.178, 276 466.445 C 276 466.712, 278.514 471.076, 281.587 476.143 C 288.349 487.296, 288.383 486.384, 280.066 518 C 279.560 519.925, 278.644 524.027, 278.031 527.116 C 277.418 530.205, 276.294 533.580, 275.533 534.616 C 274.182 536.457, 274.030 536.458, 268.881 534.640 C 265.983 533.617, 261.786 531.644, 259.556 530.256 C 251.561 525.280, 228.800 506.216, 224.029 500.500 C 222.652 498.850, 219.212 495.025, 216.384 492 C 201.437 476.012, 177.782 435.461, 170.592 413.500 C 168.993 408.618, 168.411 407.121, 166.122 402 C 165.139 399.800, 165.057 400.041, 165.438 404 C 166.044 410.302, 166.981 415.157, 168.043 417.500 C 168.541 418.600, 170.344 423.775, 172.049 429 C 173.755 434.225, 175.730 439.850, 176.439 441.500 C 177.148 443.150, 178.537 446.525, 179.526 449 C 182.818 457.240, 194.132 480.096, 197.086 484.473 C 198.689 486.847, 200 489.067, 200 489.405 C 200 490.129, 210.579 504.543, 212.901 506.982 C 213.781 507.905, 216.397 510.923, 218.716 513.687 C 225.683 521.991, 243.171 539.248, 249.537 544.101 C 256.404 549.335, 263.874 553.129, 268.962 553.966 C 272.421 554.535, 272.497 554.648, 272.387 559.024 C 272.325 561.486, 271.778 569.575, 271.172 577 C 270.566 584.425, 270.055 599.612, 270.035 610.750 L 270 631 265.938 631 C 263.704 631, 259.766 630.370, 257.188 629.600 C 246.169 626.309, 242.191 625.004, 237 622.978 C 233.975 621.797, 230.600 620.564, 229.500 620.237 C 226.003 619.198, 206.724 608.956, 200.636 604.904 C 197.411 602.757, 194.579 601, 194.343 601 C 193.491 601, 182.356 592.518, 176.057 587.072 C 165.558 577.992, 151.996 563.871, 143.876 553.562 C 137.527 545.503, 126.125 527.014, 121.174 516.750 C 107.053 487.476, 101.263 468.026, 97.435 437 C 94.576 413.830, 96.077 382.449, 100.997 362.500 C 102.889 354.829, 108.372 339.135, 111.653 332 C 116.778 320.854, 124.579 305.515, 128.436 299 C 130.878 294.875, 133.678 289.925, 134.659 288 C 139.148 279.193, 163.697 243.926, 181.994 220 C 189.298 210.448, 214.037 180.443, 221.594 171.969 C 238.202 153.346, 244.306 146.570, 249.470 141.025 C 252.787 137.464, 258.867 130.939, 262.982 126.525 C 267.097 122.111, 282.545 106.423, 297.311 91.662 C 312.077 76.901, 323.988 64.655, 323.781 64.447 C 323.573 64.240, 322.300 65.076, 320.952 66.305 M 232.601 216.096 C 231.822 220.966, 232.736 227.103, 234.448 228.500 C 235.122 229.050, 236.213 230.512, 236.872 231.750 C 238.847 235.458, 240.244 234.450, 239.644 229.750 C 239.346 227.412, 239.079 223.170, 239.051 220.321 C 238.969 211.969, 233.802 208.584, 232.601 216.096 M 270 225.675 C 270 226.230, 268.261 227.204, 266.137 227.841 C 262.291 228.993, 260.616 230.869, 255.055 240.256 C 253.831 242.322, 252.418 243.758, 251.915 243.447 C 251.412 243.136, 251 243.359, 251 243.941 C 251 244.523, 250.298 245, 249.441 245 C 248.460 245, 248.160 244.537, 248.633 243.750 C 249.220 242.772, 249.064 242.758, 247.915 243.687 C 247.108 244.340, 246.344 246.115, 246.218 247.631 C 246.093 249.147, 245.430 250.759, 244.745 251.213 C 243.796 251.842, 243.912 252.354, 245.234 253.368 C 246.188 254.099, 246.742 254.924, 246.465 255.201 C 245.666 256.001, 253.407 274.302, 254.732 274.744 C 255.394 274.965, 256.194 273.884, 256.528 272.321 C 258.172 264.608, 260.681 255.718, 263.252 248.500 C 264.819 244.100, 266.811 238.250, 267.680 235.500 C 268.549 232.750, 269.727 229.488, 270.298 228.252 C 270.869 227.015, 271.036 225.702, 270.668 225.335 C 270.301 224.967, 270 225.120, 270 225.675 M 196 253.324 C 196 253.502, 196.678 258.114, 197.507 263.574 C 199.289 275.314, 200.909 280.354, 203.844 283.288 L 206 285.444 206.137 282.972 C 206.382 278.554, 206.281 277.613, 204.631 269 C 201.886 254.664, 201.243 253, 198.453 253 C 197.104 253, 196 253.146, 196 253.324 M 504.630 319.210 C 504.928 319.693, 504.717 320.636, 504.160 321.307 C 503.603 321.978, 502.602 324.695, 501.934 327.346 C 501.095 330.679, 500.454 331.755, 499.858 330.833 C 499.258 329.908, 499.089 330.180, 499.305 331.724 C 499.475 332.948, 499.909 334.242, 500.268 334.601 C 500.627 334.960, 500.281 336.489, 499.500 338 C 498.719 339.511, 498.362 341.028, 498.707 341.373 C 499.051 341.718, 498.733 342, 498 342 C 497.267 342, 496.960 342.293, 497.318 342.651 C 497.676 343.009, 497.188 343.943, 496.234 344.725 C 495.281 345.508, 495.069 345.860, 495.764 345.507 C 496.459 345.154, 494.902 347.905, 492.305 351.621 C 489.708 355.336, 488.121 358.043, 488.780 357.636 C 489.575 357.145, 489.781 357.407, 489.394 358.416 C 489.073 359.253, 488.515 359.842, 488.155 359.726 C 486.996 359.354, 483.356 362.427, 482.057 364.875 C 480.443 367.915, 482.333 372.181, 484.876 371.238 C 487.509 370.263, 497.270 362.872, 500.299 359.560 C 505.221 354.180, 512 345.189, 512 344.041 C 512 343.430, 512.707 341.850, 513.571 340.532 C 514.755 338.725, 514.967 336.945, 514.429 333.317 C 513.660 328.120, 508.859 316.922, 508.222 318.835 C 508.008 319.476, 507.394 320, 506.858 320 C 506.321 320, 506.114 319.625, 506.397 319.167 C 506.680 318.708, 506.277 318.333, 505.500 318.333 C 504.723 318.333, 504.332 318.728, 504.630 319.210 M 367.405 461.864 C 361.312 465.851, 354.092 472.808, 357.187 471.710 C 358.116 471.380, 360.816 470.599, 363.187 469.974 C 368.106 468.677, 375.932 464.408, 377.673 462.073 C 378.626 460.796, 378.438 460.272, 376.673 459.285 C 373.700 457.624, 374.021 457.535, 367.405 461.864 M 420.881 514.643 C 420.272 515.377, 419.405 515.751, 418.956 515.473 C 418.506 515.195, 417.813 515.494, 417.415 516.138 C 416.932 516.919, 417.127 517.039, 418 516.500 C 418.885 515.953, 419.068 516.081, 418.565 516.894 C 418.142 517.580, 417.322 517.747, 416.661 517.283 C 416.022 516.835, 414.825 516.536, 414 516.619 C 413.175 516.702, 411.911 516.821, 411.191 516.885 C 410.446 516.950, 410.186 517.538, 410.588 518.250 C 411.150 519.247, 411.022 519.248, 409.954 518.257 C 408.875 517.256, 408.178 517.424, 406.379 519.113 C 405.065 520.348, 404.391 521.855, 404.742 522.770 C 405.119 523.751, 404.932 524.076, 404.239 523.648 C 403.634 523.274, 402.813 523.494, 402.415 524.138 C 401.930 524.923, 402.128 525.039, 403.015 524.490 C 403.985 523.891, 404.164 524.132, 403.681 525.388 C 403.319 526.332, 403.400 526.871, 403.861 526.586 C 404.322 526.301, 405.292 527.178, 406.018 528.534 C 406.744 529.890, 407.767 531, 408.291 531 C 408.816 531, 408.734 530.385, 408.110 529.633 C 407.239 528.583, 407.385 527.944, 408.738 526.883 C 410.300 525.657, 410.359 525.681, 409.259 527.092 C 408.576 527.968, 408.326 528.993, 408.704 529.371 C 409.869 530.535, 409.900 533.056, 408.741 532.340 C 408.146 531.972, 408.523 532.819, 409.579 534.222 C 411.472 536.736, 413.080 536.953, 418.250 535.393 C 419.397 535.047, 420 535.405, 420 536.433 C 420 538.825, 421.047 538.384, 427.007 533.481 C 430.086 530.948, 434.811 528.230, 437.759 527.296 C 441.173 526.214, 442.576 525.349, 441.759 524.830 C 440.844 524.249, 440.962 524.026, 442.191 524.015 C 443.121 524.007, 444.203 523.480, 444.595 522.845 C 445.007 522.180, 444.873 521.961, 444.280 522.327 C 443.676 522.700, 443.250 521.905, 443.250 520.407 C 443.250 519.001, 442.715 517.321, 442.062 516.675 C 441.145 515.768, 441.121 516.185, 441.954 518.500 C 443.013 521.443, 443 521.461, 441.267 519.435 C 439.090 516.890, 436.380 516.852, 436.817 519.373 C 437.018 520.531, 436.718 520.944, 435.999 520.499 C 435.374 520.113, 435.088 519.212, 435.363 518.496 C 435.638 517.780, 435.315 516.445, 434.646 515.530 C 433.540 514.018, 433.429 514.048, 433.429 515.859 C 433.429 516.956, 433.777 517.638, 434.203 517.375 C 434.629 517.111, 434.727 517.548, 434.421 518.344 C 433.972 519.515, 433.435 519.381, 431.618 517.646 C 430.382 516.466, 429.546 515.151, 429.760 514.725 C 429.974 514.299, 429.778 514.015, 429.324 514.094 C 428.871 514.172, 428.275 514.139, 428 514.019 C 426.044 513.168, 421.797 513.540, 420.881 514.643 M 316.487 522.908 C 310.328 534.814, 308.663 544.426, 309.200 565 L 309.500 576.500 312.920 576.826 C 316.067 577.126, 318.996 576.603, 329.250 573.908 C 331.313 573.366, 333 572.596, 333 572.196 C 333 571.796, 330.863 570.709, 328.250 569.780 C 319.266 566.586, 319.625 567.442, 318.836 547.344 C 318.450 537.530, 318.125 527.587, 318.114 525.250 C 318.089 520.472, 317.893 520.190, 316.487 522.908 M 370.500 584.592 C 368.300 585.403, 364.653 586.960, 362.395 588.052 C 357.755 590.297, 349.860 592.676, 342.584 594.022 C 339.880 594.523, 337.180 595.452, 336.584 596.087 C 335.769 596.956, 336.492 597.054, 339.500 596.484 C 341.700 596.067, 345.183 595.805, 347.241 595.903 C 349.299 596, 351.882 595.599, 352.981 595.010 C 354.516 594.189, 355.574 594.330, 357.539 595.617 C 359.533 596.924, 360.032 596.987, 359.799 595.902 C 359.584 594.903, 361.053 594.323, 365 593.849 C 368.025 593.486, 372.075 592.790, 374 592.303 C 377.259 591.479, 377.500 591.146, 377.500 587.473 C 377.500 582.865, 376.407 582.415, 370.500 584.592 M 381.571 614.571 C 380.707 615.436, 380 615.870, 380 615.536 C 380 615.203, 379.026 615.451, 377.836 616.088 C 376.645 616.725, 372.568 617.183, 368.776 617.105 C 360.517 616.935, 355.440 618.918, 354.738 622.588 C 354.480 623.941, 354.727 625.332, 355.289 625.678 C 355.905 626.059, 356.020 625.752, 355.580 624.905 C 355.180 624.132, 355.497 624.288, 356.286 625.250 C 357.809 627.108, 361.201 627.418, 364.500 626 C 365.600 625.527, 366.050 625.102, 365.500 625.055 C 363.398 624.875, 367.632 623.030, 370.180 623.015 C 372.180 623.004, 372.942 622.437, 373.180 620.782 C 373.442 618.964, 374.177 618.546, 377.250 618.463 C 379.313 618.408, 381 618.731, 381 619.182 C 381 619.632, 382.049 620, 383.331 620 C 385.852 620, 388.727 615.985, 387.559 614.095 C 386.574 612.502, 383.388 612.755, 381.571 614.571" fill="none" stroke="currentColor" stroke-width="20" stroke-linecap="round" stroke-linejoin="round"/>
</svg>